<svg width="102" height="134" viewBox="0 0 102 134" fill="none" xmlns="http://www.w3.org/2000/svg">
<g clip-path="url(#clip0_112_858)">
<path d="M36.529 92.7387C32.1757 94.2182 34.8965 100.292 36.2181 103.017C40.3382 111.504 43.9141 120.615 48.7339 128.713C50.5219 131.75 53.4759 135.02 57.3628 133.696C62.96 131.75 62.1048 124.82 62.0271 120.148C62.0271 109.558 50.2887 88.0667 36.529 92.7387Z" fill="#CCD1E4"/>
<path d="M71.5966 26.2254C68.0207 28.5614 70.897 33.8563 70.3528 37.1267C68.3316 49.741 70.8193 62.8225 80.692 72.0886C84.9676 76.1377 92.0417 79.9531 97.6389 75.9041C110.466 66.638 91.5753 41.7208 85.2008 34.012C82.3245 30.5859 77.0383 22.6436 71.5966 26.2254Z" fill="#CCD1E4"/>
<path d="M11.171 0.560604C6.42899 3.28592 10.6268 11.5397 11.7929 15.3552C14.8247 25.1663 21.8211 50.5507 37.4464 42.219C42.033 39.8052 42.033 33.7316 40.7114 29.3711C37.9129 19.56 30.6832 11.4619 22.6762 5.54404C19.7999 3.44165 15.2134 -1.69752 11.171 0.560604Z" fill="#CCD1E4"/>
<path d="M3.77804 51.5941C-0.342073 53.7744 0.590783 60.1594 0.590783 63.9748C0.590783 75.9662 -1.19719 89.5928 1.4459 101.351C2.53423 106.256 6.88756 111.006 12.1737 108.203C25.0005 101.429 20.4917 73.8639 15.05 63.9748C13.2621 60.6266 8.67553 48.9467 3.77804 51.5941Z" fill="#CCD1E4"/>
</g>
<defs>
<clipPath id="clip0_112_858">
<rect width="102" height="134" fill="white"/>
</clipPath>
</defs>
</svg>
