<svg width="77" height="101" viewBox="0 0 77 101" fill="none" xmlns="http://www.w3.org/2000/svg">
<g clip-path="url(#clip0_110_838)">
<path fill-rule="evenodd" clip-rule="evenodd" d="M45.9747 13.9602C45.4154 10.7049 44.5454 1.87809 48.4606 0.187849C50.6357 -0.751174 56.1667 2.1285 58.1553 3.19272C65.8614 7.19922 83.6351 22.474 68.5337 29.861C56.726 35.6203 47.7148 24.4772 45.9747 13.9602ZM52.5622 22.0358C48.2741 16.9025 48.2741 9.20247 49.4549 2.94232C51.6922 3.56833 53.6187 5.25857 55.4831 6.82361C56.1667 7.44963 56.8503 8.01304 57.5339 8.51385C58.0932 8.95206 58.7146 9.39028 59.3361 9.82849C63.1891 12.583 68.1608 16.1512 68.3473 20.909C68.7823 29.4228 55.7316 25.8545 52.5622 22.0358Z" fill="#6BA8B2"/>
<path fill-rule="evenodd" clip-rule="evenodd" d="M11.6081 30.174C13.9696 26.5431 16.7662 22.2862 20.5571 21.4098C22.9808 20.8464 27.0202 27.357 29.1953 30.8626C29.6304 31.5513 30.0032 32.1147 30.2518 32.4903C37.9579 43.8838 39.9466 56.2789 23.5401 59.8472C16.0826 61.4748 0.918978 62.1008 0.608249 50.9577C0.483957 44.948 4.46129 39.8147 8.00361 35.2447C8.56292 34.4935 9.12223 33.7423 9.68155 33.0537C10.303 32.2399 10.9245 31.2383 11.6081 30.174ZM13.7832 33.9927C15.8961 31.3635 18.0712 28.7342 21.1785 27.2944C23.4779 31.2382 25.653 35.3074 27.6417 39.4391C27.7038 39.5643 27.766 39.6895 27.8281 39.8147C29.1332 42.4439 31.0597 46.3878 30.0654 49.2675C28.9468 52.5228 24.7208 53.587 21.7378 54.4008C12.2917 56.9049 0.483957 55.0268 7.32 42.9447C8.93579 40.0651 10.9866 37.4358 13.0996 34.8691C13.3482 34.5561 13.5346 34.2431 13.7832 33.9927Z" fill="#6BA8B2"/>
<path fill-rule="evenodd" clip-rule="evenodd" d="M46.7205 66.5454C47.8392 61.7251 49.5171 54.6512 52.438 53.8373C54.4888 53.2739 60.7655 58.8455 63.8106 61.5373C64.3078 61.9755 64.7428 62.4137 65.0536 62.6015C76.9234 72.6804 84.7538 92.9007 64.4943 98.9104C61.8841 99.6617 59.0876 100.037 56.4153 100.1C54.2402 100.1 52.1272 99.9121 50.0764 99.3487C36.9015 96.0934 41.9353 81.382 45.1669 71.9292C45.4155 71.2406 45.6019 70.6145 45.8505 69.9885C46.0991 69.2999 46.3477 68.0479 46.7205 66.5454ZM51.3815 67.5471C52.2515 65.4186 52.9973 63.478 53.4944 61.9755C60.0819 66.295 73.8161 78.0641 68.9688 87.3918C66.3586 92.5251 50.5736 96.9072 47.1556 90.8348C44.1104 85.4511 48.3363 75.0593 51.3815 67.5471Z" fill="#6BA8B2"/>
</g>
<defs>
<clipPath id="clip0_110_838">
<rect width="76.3648" height="100.1" fill="white" transform="translate(0.608276)"/>
</clipPath>
</defs>
</svg>
