<svg width="112" height="138" viewBox="0 0 112 138" fill="none" xmlns="http://www.w3.org/2000/svg">
<g clip-path="url(#clip0_112_864)">
<path fill-rule="evenodd" clip-rule="evenodd" d="M60.1078 25.9494C60.1078 20.7026 64.8252 2.64998 69.9878 0.337827C74.0822 -1.52968 74.9723 4.78428 74.9723 7.27429C75.0613 13.5882 74.3492 30.0401 66.9615 32.3523C62.956 33.5973 60.1968 29.5065 60.1078 25.9494ZM68.2966 11.365C68.7416 10.0311 69.2757 8.60822 69.7207 7.27429C71.6789 12.3432 68.9196 24.6154 64.3802 27.728C64.5582 22.0365 66.4274 16.7008 68.2966 11.365Z" fill="#6BA8B2"/>
<path fill-rule="evenodd" clip-rule="evenodd" d="M74.9723 84.0203C72.569 84.5539 70.1658 85.0875 68.7416 87.3107C63.6681 84.0203 68.5636 74.6828 71.2339 69.436C71.5899 68.8135 71.8569 68.191 72.124 67.7463C77.5535 56.7191 84.0512 45.5141 94.5542 38.4887C96.5124 37.1547 98.6487 35.9987 100.785 35.1094C120.99 26.9279 108.707 51.6502 103.722 58.7645C100.34 63.6556 96.7795 68.6356 92.685 72.9931C88.7687 77.0839 83.7842 80.7299 78.6216 82.9532C77.3755 83.4867 76.2184 83.7535 74.9723 84.0203ZM70.5218 81.9749C87.8786 76.0167 102.12 56.2745 107.906 39.289C88.8577 40.2673 76.5744 66.5902 70.5218 81.9749Z" fill="#6BA8B2"/>
<path fill-rule="evenodd" clip-rule="evenodd" d="M0.204714 138C0.738768 135.866 1.27282 135.065 2.87498 133.554C-1.75348 128.129 0.204714 119.414 1.89588 113.1C6.52435 95.7587 16.0483 78.2397 25.7503 63.2996C26.1063 62.6771 26.5514 62.0546 26.9964 61.3432C30.5568 55.5628 36.1643 46.7588 42.929 47.4703C52.364 48.3596 46.8454 64.8114 44.3532 72.4593C43.9971 73.4375 43.7301 74.2379 43.5521 74.8604C38.1225 92.913 29.1326 108.653 16.8494 122.882C16.2263 123.593 15.6033 124.305 14.9802 125.016C10.7968 130.085 6.34633 135.243 0.204714 138ZM3.76507 129.996C3.76507 105.007 24.0591 70.9475 41.1488 53.5174C43.107 58.4975 40.6148 65.9675 38.6566 71.6589C38.3006 72.815 37.9445 73.8822 37.5885 74.8604C31.7139 93.8912 20.3207 117.902 3.76507 129.996Z" fill="#6BA8B2"/>
</g>
<defs>
<clipPath id="clip0_112_864">
<rect width="112" height="138" fill="white"/>
</clipPath>
</defs>
</svg>
