<svg width="257" height="104" viewBox="0 0 257 104" fill="none" xmlns="http://www.w3.org/2000/svg">
<g clip-path="url(#clip0_140_3)">
<path d="M16.456 20.92V25.464H23.784V29.688H16.456V34.616H24.744V39H10.984V16.536H24.744V20.92H16.456ZM53.7365 16.536V39H48.2645V25.528L43.2405 39H38.8245L33.7685 25.496V39H28.2965V16.536H34.7605L41.0645 32.088L47.3045 16.536H53.7365ZM71.6555 35.032H63.2715L61.9275 39H56.1995L64.3275 16.536H70.6635L78.7915 39H72.9995L71.6555 35.032ZM70.2475 30.808L67.4635 22.584L64.7115 30.808H70.2475ZM86.7373 16.536V39H81.2653V16.536H86.7373ZM96.1748 34.776H103.343V39H90.7028V16.536H96.1748V34.776ZM126.814 16.536V31.832C126.814 34.2 126.142 36.024 124.798 37.304C123.475 38.584 121.683 39.224 119.422 39.224C117.054 39.224 115.155 38.552 113.726 37.208C112.297 35.864 111.582 33.9547 111.582 31.48H117.022C117.022 32.4187 117.214 33.1333 117.598 33.624C117.982 34.0933 118.537 34.328 119.262 34.328C119.923 34.328 120.435 34.1147 120.798 33.688C121.161 33.2613 121.342 32.6427 121.342 31.832V16.536H126.814ZM141.858 39.224C139.746 39.224 137.805 38.7333 136.034 37.752C134.285 36.7707 132.887 35.4053 131.842 33.656C130.818 31.8853 130.306 29.9013 130.306 27.704C130.306 25.5067 130.818 23.5333 131.842 21.784C132.887 20.0347 134.285 18.6693 136.034 17.688C137.805 16.7067 139.746 16.216 141.858 16.216C143.97 16.216 145.901 16.7067 147.65 17.688C149.421 18.6693 150.807 20.0347 151.81 21.784C152.834 23.5333 153.346 25.5067 153.346 27.704C153.346 29.9013 152.834 31.8853 151.81 33.656C150.786 35.4053 149.399 36.7707 147.65 37.752C145.901 38.7333 143.97 39.224 141.858 39.224ZM141.858 34.232C143.65 34.232 145.079 33.6347 146.146 32.44C147.234 31.2453 147.778 29.6667 147.778 27.704C147.778 25.72 147.234 24.1413 146.146 22.968C145.079 21.7733 143.65 21.176 141.858 21.176C140.045 21.176 138.594 21.7627 137.506 22.936C136.439 24.1093 135.906 25.6987 135.906 27.704C135.906 29.688 136.439 31.2773 137.506 32.472C138.594 33.6453 140.045 34.232 141.858 34.232ZM176.486 39H171.014L161.862 25.144V39H156.39V16.536H161.862L171.014 30.456V16.536H176.486V39ZM185.925 16.536V39H180.453V16.536H185.925Z" fill="#175361"/>
<g clip-path="url(#clip1_140_3)">
<path fill-rule="evenodd" clip-rule="evenodd" d="M229.307 53.3375C220.796 52.4823 203.159 48.5394 204.305 37.1765C198.209 38.1293 201.005 45.4017 203.724 48.4012C209.404 54.6988 217.555 57.6633 225.768 58.7602C212.035 65.9455 196.183 73.5848 180.271 73.2262C174.288 73.0986 167.179 72.5837 162.913 67.9092C167.721 67.3759 173.681 64.2743 176.732 60.502C179.879 56.6137 178.468 52.4866 173.349 51.979C168.124 51.4812 162.08 54.1412 158.935 58.286C158.385 59.0434 158.032 60.082 157.68 61.1207C157.095 62.8871 156.466 64.6362 154.887 65.1471C142.565 69.0979 127.59 63.1738 115.395 58.3817L110.422 56.4481C111.614 59.8253 115.011 61.6061 118.132 63.1772C118.692 63.4461 119.235 63.7593 119.795 64.0282C131.59 70.5052 143.417 71.1158 156.42 69.8835C158.497 69.6686 160.315 71.0401 162.089 72.3943C162.963 73.0405 163.836 73.6868 164.734 74.1381C168.459 75.9954 173.211 76.9225 177.301 77.1836C195.912 78.4892 213.044 69.6606 229.022 61.3034C224.942 64.8291 220.862 68.3548 216.584 71.5993L208.106 77.7602C207.262 78.3523 206.118 78.9297 204.894 79.5786C202.464 80.8321 199.726 82.2213 198.656 84.0544C195.496 89.4203 206.027 86 207.532 85.1537C216.716 79.6761 225.046 72.8442 232.94 65.6892C233.431 65.2155 234.151 64.6776 234.95 64.0682C237.674 62.0598 241.292 59.3261 240.796 56.5261C240.243 53.3462 235.208 53.2801 231.695 53.2435C230.768 53.3941 229.953 53.3843 229.307 53.3375V53.3375ZM173.951 56.6094C171.591 60.4458 165.69 63.2637 161.286 63.5453C163.316 58.4558 168.489 55.4061 173.951 56.6094V56.6094Z" fill="#7D0633"/>
</g>
</g>
<defs>
<clipPath id="clip0_140_3">
<rect width="257" height="104" fill="white"/>
</clipPath>
<clipPath id="clip1_140_3">
<rect width="122.005" height="56.0878" fill="white" transform="matrix(-0.932042 -0.362351 -0.362351 0.932042 242.971 52.2086)"/>
</clipPath>
</defs>
</svg>
