<svg width="126" height="97" viewBox="0 0 126 97" fill="none" xmlns="http://www.w3.org/2000/svg">
<g clip-path="url(#clip0_110_798)">
<path d="M85.2614 26.6336C87.1907 18.6761 80.6402 7.9335 74.4486 3.20322C70.2312 -0.0239839 64.3088 -0.775524 60.4054 3.33584C56.2777 7.71245 56.6815 14.6089 57.6237 20.0908C57.9826 22.3454 58.6556 25.9262 61.6168 26.1473C64.2639 26.3241 64.5331 23.6716 64.5331 21.7265C64.5331 18.5435 63.3217 10.1881 67.4494 8.77345C69.5582 8.06612 71.9809 10.6744 73.2372 11.9122C77.2752 15.891 80.2812 24.1137 85.2614 26.6336V26.6336Z" fill="#7D0633"/>
<path d="M41.5613 37.6857H41.1575C40.7537 38.3046 40.7537 38.172 40.7537 38.9235L35.1903 26.6336C33.9789 23.9812 32.6778 21.196 30.8831 18.853C26.3067 12.9733 18.6794 14.7858 15.0004 20.4887C11.77 25.4842 11.9495 32.7786 12.7122 38.4815C13.0262 40.8687 13.116 48.4725 17.4232 46.8368C19.7562 45.9526 19.1281 42.5044 19.1281 40.5592C19.1281 35.5637 18.1859 30.745 19.8459 25.8379C20.4292 24.0696 21.5957 21.5055 23.7045 21.0634C25.6786 20.6655 27.4732 22.8759 28.55 24.2022C31.8253 28.0925 33.6648 33.0438 36.3568 37.2878C38.3309 40.3824 41.5613 43.0791 41.5613 37.6857V37.6857Z" fill="#7D0633"/>
<path d="M126 63.8569C125.417 57.0931 117.834 49.0472 111.463 46.9694C107.515 45.6873 102.759 45.9526 100.157 49.5335C97.5097 53.2027 98.4071 58.9056 99.3493 63.017C99.7082 64.52 100.022 67.0399 101.907 67.3494C104.24 67.7472 104.778 65.0948 104.778 63.4148C104.778 60.4087 102.625 53.1143 107.291 52.2744C115.322 50.8597 118.732 63.3706 126 63.8569Z" fill="#7D0633"/>
<path d="M56.143 51.0366C48.9195 53.0702 46.5864 62.796 46.5864 69.162C46.5864 71.2398 46.048 75.8374 48.6951 76.6774C50.9384 77.3847 51.9255 74.4228 52.2844 72.8755C53.1369 69.4272 53.9894 59.6572 58.6106 58.9057C60.5847 58.5962 63.1421 61.4697 64.4432 62.6634C67.8531 65.7579 75.5701 73.7596 80.999 71.3724C84.1396 70.0019 78.0826 64.9622 76.9161 63.9012C71.577 59.1709 64.7573 48.6052 56.143 51.0366V51.0366Z" fill="#7D0633"/>
<path d="M10.379 66.9954C3.02087 69.2501 0.867279 81.982 0.817926 88.3922C0.817926 90.7353 0.593594 95.1561 3.37531 96.2613C4.81104 96.836 5.84297 95.8634 6.11217 94.5372C7.1441 89.1438 7.45816 83.7946 9.52202 78.578C10.0155 77.3402 11.0026 74.0688 12.8421 74.334C14.233 74.5551 15.1303 76.677 15.6239 77.7822C17.3736 81.4073 18.4953 85.2976 20.4694 88.8343C21.1873 90.0721 22.623 92.813 24.4177 92.5478C26.9751 92.1941 25.0009 85.7839 24.642 84.3251C23.0717 78.0917 19.7964 64.0777 10.3745 66.9954H10.379Z" fill="#7D0633"/>
</g>
<defs>
<clipPath id="clip0_110_798">
<rect width="125.182" height="95.9186" fill="white" transform="translate(0.818115 0.510742)"/>
</clipPath>
</defs>
</svg>
