<svg width="271" height="122" viewBox="0 0 271 122" fill="none" xmlns="http://www.w3.org/2000/svg">
<path d="M7.64761 90.3059C12.9592 91.1956 17.1641 91.6405 23.1396 91.6405C30.0004 91.6405 29.5578 88.0815 29.5578 83.744V81.186C30.3324 81.2972 31.107 81.2972 31.8816 81.2972C49.8081 81.2972 58.4393 63.1687 58.4393 46.7085C58.4393 41.5925 57.5541 36.5877 55.8942 32.3615C50.5827 19.1266 45.4924 17.6807 32.4349 14.9003C29.7791 14.3442 25.9061 14.0106 21.8118 14.0106C14.619 14.0106 6.65169 15.0115 3.11066 17.5695C3 20.7948 3 24.0201 3 27.2454C3 48.488 4.99183 69.5082 7.64761 90.3059ZM24.9102 41.1477C25.3528 37.255 27.6766 35.0307 29.8897 35.0307C31.9922 35.0307 33.8734 36.9214 33.8734 41.0364C33.8734 43.4832 32.9882 46.7085 30.0004 46.7085C26.57 46.7085 24.9102 44.373 24.9102 41.1477Z" fill="#7D0633"/>
<path d="M65.026 66.2828C65.8007 77.4046 65.8007 91.418 88.2641 91.418C96.6741 91.418 97.338 88.5264 102.871 83.9664C105.748 86.5245 103.645 89.861 109.953 89.861C113.162 89.861 116.814 89.3049 117.367 85.7459C118.916 78.7392 119.248 66.5053 119.248 57.7191C119.248 33.3624 117.92 31.3605 116.924 28.2464C115.818 24.6874 109.842 24.465 105.969 24.465C99.4405 24.465 98.2233 34.8082 98.2233 45.0403C98.2233 51.3797 98.6659 57.8303 98.6659 61.7229C98.6659 68.7296 93.3543 68.6184 89.7027 68.6184C84.7231 68.6184 83.6165 64.7258 83.6165 58.0527C83.6165 52.9367 84.2804 46.3749 84.2804 38.7009C84.2804 25.7996 81.4033 25.0211 71.4442 25.0211C66.7966 25.0211 65.358 25.1323 65.358 25.7996C65.358 40.2579 65.026 53.2704 65.026 66.2828Z" fill="#7D0633"/>
<path d="M125.977 38.1448C126.309 75.5139 126.53 76.7373 126.751 79.4065C127.305 85.8571 134.387 90.4171 140.473 90.7507H141.137C146.006 90.7507 150.211 88.0815 150.432 82.0757L150.543 81.2972C150.432 77.7383 150.1 74.2905 149.989 70.7315L156.186 70.8428C159.506 70.954 161.055 68.1735 161.055 65.9492C161.055 60.3883 153.309 63.0575 150.653 60.3883C148.993 58.72 146.448 46.8198 146.448 36.4765C146.448 28.5801 147.997 20.2387 152.534 20.2387C154.969 20.2387 157.293 20.4612 159.506 20.4612C164.707 20.4612 168.69 19.349 168.69 12.1198C168.69 6.11409 158.953 3.22244 154.526 3H153.309C148.883 3 143.571 4.11218 139.034 7.00384C127.968 13.8993 125.866 24.7987 125.866 35.2531C125.866 36.2541 125.866 37.255 125.977 38.1448Z" fill="#7D0633"/>
<path d="M171.472 38.1448C171.804 75.5139 172.025 76.7373 172.246 79.4065C172.799 85.8571 179.881 90.4171 185.968 90.7507H186.632C191.501 90.7507 195.705 88.0815 195.927 82.0757L196.037 81.2972C195.927 77.7383 195.595 74.2905 195.484 70.7315L201.681 70.8428C205.001 70.954 206.55 68.1735 206.55 65.9492C206.55 60.3883 198.804 63.0575 196.148 60.3883C194.488 58.72 191.943 46.8198 191.943 36.4765C191.943 28.5801 193.492 20.2387 198.029 20.2387C200.464 20.2387 202.788 20.4612 205.001 20.4612C210.202 20.4612 214.185 19.349 214.185 12.1198C214.185 6.11409 204.447 3.22244 200.021 3H198.804C194.378 3 189.066 4.11218 184.529 7.00384C173.463 13.8993 171.361 24.7987 171.361 35.2531C171.361 36.2541 171.361 37.255 171.472 38.1448Z" fill="#7D0633"/>
<path d="M226.61 107.211C226.61 115.775 235.352 119 242.434 119H243.209C262.131 119 267 98.7584 267 76.9597C267 57.2742 266.004 36.5877 265.119 28.5801C264.012 25.466 256.709 25.3548 254.053 25.3548C245.311 25.3548 243.541 28.5801 243.541 36.8102C243.541 39.5906 243.873 42.371 243.873 45.1515V45.5964C243.873 49.489 243.762 55.4947 238.893 55.4947C234.799 55.4947 234.024 49.8226 234.024 46.7085V31.0268C233.471 27.2454 227.717 25.3548 222.294 25.3548C216.872 25.3548 211.561 27.2454 211.561 30.9156V58.0527C211.561 73.4008 215.544 79.5177 231.036 81.8533H233.249C240.11 81.8533 246.639 81.7421 249.184 74.7354C249.184 80.7411 249.405 83.2991 249.405 90.5283C249.405 98.6472 249.073 104.653 243.209 105.098C237.565 105.098 239.778 95.978 233.249 95.978C228.049 96.3116 226.61 102.985 226.61 107.211Z" fill="#7D0633"/>
</svg>
