<svg viewBox="0 0 219 62" fill="none" xmlns="http://www.w3.org/2000/svg">
<g clip-path="url(#clip0_110_745)">
<path fill-rule="evenodd" clip-rule="evenodd" d="M119.299 30.7886C121.751 30.5592 124.043 30.1349 126.386 29.4958L125.814 30.1792C123.455 32.9191 120.214 36.7914 123.137 40.087C125.504 42.7348 129.281 42.3115 132.637 41.9276L134.108 41.79C144.336 40.8333 153.437 36.1331 150.175 24.6813C157.122 23.4016 164.028 20.1664 171.074 16.918C181.703 11.9349 192.542 6.93209 203.717 8.54606C207.368 9.04435 210.008 10.8268 212.858 12.5897C213.91 13.2611 214.963 13.9324 216.078 14.5279C210.87 -6.39921 180.322 5.48579 166 11.0244L165.93 11.0309C165.248 11.3046 164.631 11.5023 164.02 11.7694C147.991 17.9574 133.293 23.2513 116.079 25.0714C114.327 25.2352 112.594 24.8375 110.924 24.3639C109.764 24.0525 108.605 23.7411 107.464 23.6378C102.399 23.1318 96.1903 23.9925 91.1917 24.9499C77.7877 27.4634 64.6744 32.329 51.7582 37.0362C47.7288 38.5329 43.6993 40.0295 39.6568 41.3873C37.6071 42.1389 35.5508 42.8211 33.4945 43.5033C23.1497 46.9903 12.5246 50.5035 3.80286 56.9878L3.92615 58.3059C9.97308 59.4898 17.9672 55.8028 24.9493 52.6304C27.7308 51.3905 30.302 50.1702 32.562 49.399C36.1205 48.1564 39.7426 46.8378 43.3648 45.5193C61.2081 39.0915 79.8026 32.3836 98.2974 30.6536C97.1648 31.3893 96.0258 32.0557 94.8167 32.7287C92.8059 33.8965 90.7951 35.0643 89.0268 36.5594C84.4279 40.2787 80.2936 47.4536 87.7521 50.8848C101.49 57.2278 120.668 45.4266 119.299 30.7886ZM111.062 34.1483C103.968 35.3717 94.4135 38.9947 90.4685 45.1722C97.7803 44.7682 110.907 43.8203 111.062 34.1483ZM143.239 32.1183C141.256 35.103 134.042 36.5476 130.913 35.5807L135.239 32.7266L138.325 30.9683C139.541 30.3648 145.519 28.5459 143.239 32.1183Z" fill="#CCD1E4"/>
</g>
<defs>
<clipPath id="clip0_110_745">
<rect width="215.307" height="40.5033" fill="white" transform="translate(218.58 41.2717) rotate(174.656)"/>
</clipPath>
</defs>
</svg>
