<svg width="579" height="547" viewBox="0 0 579 547" fill="none" xmlns="http://www.w3.org/2000/svg">
<g clip-path="url(#clip0_110_815)">
<path d="M273.517 1.99106C206.645 11.5202 135.078 43.3787 88.6939 93.1577C-5.49617 194.28 -37.794 386.143 81.4376 480.296C114.589 506.466 152.578 524.244 192.986 535.906C237.093 548.564 286.322 546.858 331.283 540.315C398.298 530.644 471.715 495.088 512.691 440.331C546.839 394.818 562.917 339.066 571.88 283.598C580.844 227.703 580.702 159.435 551.534 108.518C528.769 68.9794 491.207 51.6278 451.368 35.1297C431.022 26.7383 411.814 14.7914 390.614 8.39122C381.082 5.54671 371.976 6.40006 362.443 5.12003C333.844 1.42216 302.542 -2.13348 273.517 1.99106Z" fill="#7D0633"/>
<path d="M265.692 2.13339C255.732 4.9779 252.886 4.9779 250.752 5.68903C260.854 47.2189 263.415 87.8955 283.904 126.296C289.595 137.106 306.953 160.573 322.319 151.613C331.852 146.066 332.848 123.025 330.572 113.496C328.864 106.1 324.027 99.558 321.893 92.1622C312.787 61.8682 304.107 30.7207 297.136 0C286.18 0 277.785 0 265.692 2.13339Z" fill="#CCD1E4"/>
<path d="M319.758 0C324.027 31.7163 332.279 66.7039 339.678 97.8513H341.1L342.523 2.13339C334.698 0.568903 327.442 0 319.758 0Z" fill="#CCD1E4"/>
<path d="M306.953 0C309.087 24.7473 320.754 49.2101 325.45 73.8151H326.872C326.446 51.3435 319.901 20.0538 309.799 0H306.953Z" fill="#CCD1E4"/>
<path d="M355.329 4.12457C355.329 32.9964 356.325 60.5882 352.91 89.3177C351.629 100.411 352.198 113.354 339.678 117.621C339.678 129.71 338.682 146.492 329.291 155.31C313.356 170.244 291.018 148.768 282.338 135.968C256.586 97.9935 255.59 50.0635 245.061 6.82685C238.231 7.82243 231.544 8.96024 225.141 11.0936C220.162 13.9381 205.364 17.7782 200.242 19.7694C182.173 27.0229 167.233 35.1298 149.732 43.0944C144.184 45.6545 127.679 58.0281 129.102 58.7392C126.968 62.4371 127.679 67.8417 127.679 72.1084V108.945C127.679 146.492 125.972 186.173 115.87 222.441C113.166 232.255 108.613 246.619 97.7999 250.317C81.8644 255.864 74.4658 228.983 73.6121 218.174H72.1893C50.278 244.201 32.3506 213.765 25.9479 194.565C22.3909 201.392 18.407 211.632 16.6997 218.174C14.9923 225.001 13.5695 229.41 11.0084 237.232C9.15877 242.637 9.58562 248.611 7.4514 255.011C7.30912 255.58 2.04472 281.465 1.33331 294.834C0.479628 311.616 0.195065 318.159 1.33331 338.639C1.33331 345.893 3.89437 356.418 5.31718 362.96C8.16281 369.645 10.1547 373.2 11.293 377.182C15.4191 392.258 21.1104 408.045 29.505 421.13C49.1398 451.709 71.7625 475.176 102.068 495.372C115.016 504.048 130.809 515.853 146.175 518.981C149.021 514.999 150.444 485.416 150.444 475.034C150.444 427.104 145.322 379.6 143.33 331.813C142.761 317.59 141.338 303.51 142.049 289.287C142.334 284.736 143.472 277.198 149.163 276.345C159.55 275.064 168.087 298.958 171.359 306.212C187.579 341.484 201.381 377.751 215.039 414.019L250.467 509.026C253.74 517.844 257.155 538.893 264.98 544.44C272.236 549.56 290.022 545.578 298.416 544.724C330.714 541.595 358.886 538.04 390.899 526.093C386.915 494.376 376.244 464.225 366.711 433.931C354.76 395.53 343.377 356.702 329.576 319.012C323.173 301.376 316.486 283.74 309.087 266.531C306.811 261.269 300.835 252.735 304.107 246.904C308.234 239.508 316.059 248.753 318.905 252.308C329.007 264.966 336.69 279.616 344.942 293.412C377.24 347.6 405.269 409.326 424.904 469.345H426.327C426.327 411.886 396.732 354.711 371.122 304.79C364.15 291.136 356.04 278.051 347.93 265.109C345.511 261.126 339.109 253.588 342.381 248.611C346.507 242.353 353.479 253.731 355.329 256.575C364.861 271.793 373.114 287.865 382.077 303.367C415.514 361.822 444.539 424.97 458.198 491.247H460.332C463.178 489.825 464.601 489.114 466.023 486.981C467.873 484.278 467.446 485.558 467.446 484.99C473.849 481.718 482.386 475.887 485.943 472.758C496.614 463.371 505.008 453.415 513.403 442.464C527.916 423.548 539.298 401.93 548.689 380.027C552.388 371.209 560.213 357.129 559.217 347.457C557.795 333.661 535.456 314.177 526.92 303.51C500.455 270.513 458.625 226.566 456.348 181.48C455.637 168.111 467.588 163.56 478.829 165.266C499.459 168.537 521.371 172.662 538.587 185.178C553.811 196.129 562.205 209.356 577.003 220.308C577.003 180.058 570.742 131.132 547.124 97.7091C523.363 64.1438 490.496 50.4901 454.641 34.7031C421.347 20.0538 395.167 3.41344 355.329 4.12457Z" fill="#CCD1E4"/>
<path d="M116.296 67.415C111.601 70.9707 106.764 73.3885 104.203 77.3708C101.926 80.9265 98.369 102.545 96.2348 117.621C92.3932 144.928 87.1288 171.524 81.8644 198.547C80.157 207.507 81.7221 236.664 92.2509 240.219C105.341 244.486 109.04 209.072 110.178 201.392C115.016 168.538 116.296 135.257 116.296 102.118C116.296 90.7401 120.707 78.082 116.296 67.415Z" fill="#CCD1E4"/>
<path d="M87.8402 93.5845C82.5758 98.5624 77.8805 104.536 72.9007 110.936C77.596 130.421 77.8805 153.035 77.8805 173.089H79.3033C80.157 154.742 84.1409 135.968 86.8442 117.763C87.8402 110.225 90.8281 100.554 87.8402 93.5845Z" fill="#CCD1E4"/>
<path d="M65.0752 121.461C55.827 133.55 49.1398 144.501 42.5948 157.302C39.1801 164.271 35.1962 173.373 32.3506 179.062C32.6351 178.351 31.9237 201.534 40.6029 212.485C48.7129 222.868 61.3759 222.868 67.9209 211.205C77.4537 194.422 68.0631 158.724 65.6444 140.234C64.7907 133.834 67.6363 127.576 65.0752 121.461Z" fill="#CCD1E4"/>
<path d="M467.731 175.791C467.873 216.894 501.878 257.429 526.066 287.865C535.03 299.101 543.424 312.897 554.522 321.857C552.388 309.625 544.42 297.678 539.298 286.443L514.257 229.695C512.265 225.286 498.463 200.823 507.712 199.543C514.683 198.547 523.363 213.765 527.204 218.316C541.432 235.384 570.173 267.242 573.872 273.642C574.015 263.971 580.417 245.908 577.429 236.664C577.003 235.241 565.193 221.73 557.51 214.05C532.469 189.16 503.301 175.933 467.731 175.791Z" fill="#CCD1E4"/>
<path d="M530.334 239.65C534.887 265.82 553.384 297.11 565.905 320.577C577.287 285.02 552.672 258.993 530.334 239.65Z" fill="#CCD1E4"/>
<path d="M326.872 283.598C341.101 335.511 360.878 386.996 377.667 438.197C386.346 464.509 398.298 493.95 399.436 521.968C406.977 519.977 425.046 515.142 426.185 506.324C428.461 489.399 413.664 465.22 407.83 449.576C392.891 409.895 374.679 371.067 355.613 333.235C347.788 317.448 339.678 296.114 326.872 283.598Z" fill="#CCD1E4"/>
<path d="M150.444 286.442C143.472 315.883 152.578 354.284 154.57 384.294C157.843 431.228 156.135 477.736 156.135 524.67C171.501 528.795 186.156 535.337 201.665 538.893C200.811 499.781 193.982 458.393 188.291 419.708C187.01 410.89 176.624 377.751 194.551 385.716C189.144 362.391 176.766 339.493 167.233 317.59C162.822 307.35 158.696 294.265 150.444 286.442Z" fill="#CCD1E4"/>
<path d="M194.551 405.628C198.108 450.287 209.775 495.514 210.202 540.458C222.011 542.733 233.678 544.724 245.772 544.724C245.061 510.021 227.133 469.06 211.909 438.34C206.787 427.673 202.092 414.73 194.551 405.628Z" fill="#CCD1E4"/>
<path d="M433.583 442.606C435.148 463.087 437.852 482.999 437.852 503.621C457.629 496.226 442.405 456.402 433.583 442.606Z" fill="#CCD1E4"/>
</g>
<defs>
<clipPath id="clip0_110_815">
<rect width="577.647" height="547" fill="white" transform="translate(0.579224)"/>
</clipPath>
</defs>
</svg>
