<svg width="957" height="576" viewBox="0 0 957 576" fill="none" xmlns="http://www.w3.org/2000/svg">
<path d="M720.798 131.782C724.46 135.412 727.993 139.211 730.923 143.443C732.68 146.053 734.294 148.732 735.392 151.731C743.759 174.058 708.601 178.814 693.964 179.646L682.684 180.195C655.529 180.621 628.652 173.816 605.587 159.271C595.322 152.797 586.694 144.084 577.224 136.697C557.296 153.01 534.917 167.613 518.604 187.968C527.217 189.132 536.17 188.226 544.895 189.477C561.454 191.741 578.205 197.831 592.376 206.687C600.102 211.564 607.312 216.762 613.464 223.565C615.944 226.284 618.74 231.04 615.47 234.352C610.63 239.235 601.715 237.299 595.764 239.083C599.055 252.743 577.904 259.232 567.88 261.646C546.306 266.821 523.286 265.141 501.463 262.14C494.496 261.168 487.499 260.351 480.537 259.024C476.482 258.231 470.959 256.667 466.876 258.006C463.279 259.181 461.436 265.298 460.173 268.451C456.148 278.448 452.171 288.033 449.52 298.46C443.586 321.878 441.866 349.261 452.962 371.538C457.755 381.152 465.186 386.878 471.288 395.259C478.633 405.405 485.744 416.088 495.777 423.909C505.146 411.751 513.043 399.175 524.438 388.578C527.057 386.111 533.233 379.028 537.361 380.773C540.315 382.063 538.83 387.018 538.373 389.358C536.602 397.593 533.909 405.745 531.091 413.711L531.598 414.101C535.154 409.485 539.383 404.58 544.355 401.504C546.562 400.154 550.333 398.754 551.656 401.926C553.213 405.728 551.137 411.216 549.951 414.967C546.467 426.008 541.661 438.184 535.972 448.244C541.329 451.655 548.391 452.97 554.512 454.457C570.299 458.189 586.122 459.078 602.28 459.418C605.303 449.905 606.811 440.032 610.09 430.537C617.277 410.149 627.081 390.789 637.661 371.938C641.531 365.052 645.588 358.04 650.29 351.706C651.839 349.579 653.389 346.288 656.253 345.714C660.457 344.916 659.832 351.432 659.7 353.932C659.026 362.026 656.891 370.967 653.865 378.503L654.372 378.894C656.315 375.906 658.397 373.204 660.904 370.65C678.832 351.809 688.967 383.483 693.406 397.4L696.098 406.831L698.992 418.212C700.105 423.287 700.146 432.2 703.319 436.349C705.219 438.89 711.324 438.302 714.093 438.551C723.309 439.283 731.933 442.878 741.21 443.298C769.507 444.65 795.007 428.325 814.123 408.874C823.429 399.359 830.891 388.511 840.492 379.312C825.7 366.838 811.139 354.181 795.77 342.338C775.11 326.418 753.311 310.696 737.061 290.1C734.209 286.467 731.443 282.72 729.193 278.654C721.933 265.255 725.275 253.117 742.19 254.22C756.094 255.155 770.777 262.881 782.613 269.759C786.596 258.653 793.696 254.794 803.463 249.222C798.284 245.231 790.73 236.988 795.978 230.177C798.928 226.349 805.333 224.557 809.784 223.322C824.42 219.348 839.899 218.357 854.999 217.972C859.038 217.854 870.528 219.71 873.481 216.693C875.901 214.252 872.996 205.912 872.352 202.905C869.404 189.149 864.874 175.7 857.769 163.497C846.116 143.572 827.052 126.28 803.531 122.688C790.196 120.666 776.709 123.73 763.212 123.198C755.668 122.858 747.556 119.297 740.304 117.298C737.782 116.611 732.494 114.509 730.049 115.586C726.373 117.328 722.577 128.309 720.798 131.782V131.782Z" fill="#6BA8B2"/>
<path d="M874.979 255.617C876.837 251.576 876.329 246.879 876.315 242.472C876.237 237.567 877.702 226.584 874.499 222.591C872.204 219.747 863.741 221.299 860.569 221.456C846.317 222.137 832.16 223.16 818.193 226.033C813.503 226.995 796.62 230.043 799.179 237.667C803.449 250.288 815.68 246.525 825.633 246.3C841.787 245.829 860.17 248.87 874.979 255.617V255.617Z" fill="#6BA8B2"/>
<path d="M688.589 111.986C698.226 117.528 707.681 121.675 716.576 128.529C719.829 124.307 721.982 119.417 724.629 114.818C715.563 111.33 698.028 109.75 688.589 111.986Z" fill="#6BA8B2"/>
<path d="M684.193 114.431C680.637 123.353 695.437 125.338 700.712 129.671C702.751 131.333 705.659 136.175 708.415 136.325C710.815 136.47 712.832 133.27 714.147 131.681C704.914 124.567 695.096 118.795 684.193 114.431V114.431Z" fill="#6BA8B2"/>
<path d="M718.369 134.934C715.676 137.614 711.16 143.823 708 145.246C698.806 149.376 686.733 141.059 677.364 142.272C674.772 142.608 672.417 145.548 670.154 146.854C665.715 149.355 660.9 151.296 655.994 152.539C639.065 156.809 620.702 151.182 609.95 137.424C606.483 132.958 605.413 127.827 602.717 123.058C595.487 125.92 586.229 129.551 580.838 135.266C589.226 141.729 597.444 149.228 606.483 154.848C629.436 169.306 654.882 176.803 682.107 176.52C695.825 176.415 710.74 174.99 723.449 169.442C730.74 166.268 735.572 159.765 731.909 151.828C730.637 149.053 728.88 146.443 727.049 144.046C724.447 140.785 721.473 137.775 718.369 134.934V134.934Z" fill="#6BA8B2"/>
<path d="M813.821 251.732C827.098 261.514 842.561 269.392 857.773 275.732C860.615 276.935 869.896 282.472 872.753 280.278C876.486 277.413 876.959 260.732 872.55 258.769C856.649 251.809 830.633 246.565 813.821 251.732Z" fill="#6BA8B2"/>
<path d="M680.332 120.606C682.519 110.898 674.454 112.399 667.633 113.333C665.896 113.608 661.359 113.791 661.664 116.538C661.923 118.531 664.652 118.482 666.13 118.544C670.961 118.678 675.601 119.293 680.332 120.606Z" fill="#6BA8B2"/>
<path d="M683.79 125.783C683.086 128.559 682.637 131.354 681.565 134.026C688.633 138.127 696.187 142.064 704.313 139.086C697.775 133.599 692.272 128.282 683.79 125.783Z" fill="#6BA8B2"/>
<path d="M665.018 122.083L664.628 122.59C667.952 127.125 673.934 129.492 678.585 132.537C679.852 130.194 680.352 127.799 680.926 125.191C676.197 122.713 670.287 122.465 665.018 122.083V122.083Z" fill="#6BA8B2"/>
<path d="M657.077 115.156C645.029 117.983 632.261 116.039 619.91 118.095C616.534 118.634 609.22 119.277 607.033 122.347C602.196 129.206 616.868 139.974 621.246 143.258C635.138 153.873 659.425 153.21 672.165 140.868C665.595 136.703 657.689 134.737 656.644 125.498C656.222 121.854 658.066 118.879 657.077 115.156V115.156Z" fill="#6BA8B2"/>
<path d="M863.611 338.365C869.011 326.468 866.692 311.313 870.256 298.539C871.016 295.805 873.661 288.065 871.544 285.806C868.375 282.466 860.061 281.263 855.734 279.543C844.238 274.901 833.28 269.328 822.599 263.161C818.55 260.848 811.805 253.766 807.247 253.394C799.665 252.755 788.416 262.927 787.184 270.231C786.662 273.238 789.642 274.726 791.668 276.288L806.565 287.229C827.017 302.72 843.749 322.342 863.611 338.365Z" fill="#6BA8B2"/>
<path d="M660.739 125.424L660.348 125.93C663.238 132.194 669.435 135.445 675.882 137.093C673.268 132.567 665.017 128.721 660.739 125.424V125.424Z" fill="#6BA8B2"/>
<path d="M786.637 277.345C786.234 287.531 793.272 297.261 799.831 304.468C806.753 312.135 816.589 317.651 825.055 323.547C837.098 332.02 848.795 340.943 860.447 349.923L863.296 342.967C850.669 332.34 839.257 320.137 826.891 309.172C813.975 297.873 800.26 287.843 786.637 277.345Z" fill="#6BA8B2"/>
<path d="M788.882 298.184C787.538 293.291 784.366 289.142 783.052 284.093C782.253 281.054 782.768 276.427 780.768 273.899C778.167 270.639 771.942 268.354 768.226 266.657C765.484 265.441 752.767 259.589 751.476 264.874C750.619 268.43 756.725 273.315 759.159 275.28C768.837 283.096 778.974 290.549 788.882 298.184Z" fill="#6BA8B2"/>
<path d="M842.851 377.183C847.899 371.563 852.704 366.026 856.514 359.452C826.059 335.983 799.191 307.743 766.84 286.851C759.933 282.425 741.399 268.054 750.523 259.474C747.85 258.401 744.93 257.766 742.062 257.53C740.06 257.333 738.141 257.379 736.204 257.68C729.183 258.64 726.882 263.955 728.831 270.391C731.325 278.682 737.493 286.396 743.268 292.64C762.417 313.317 785.178 329.421 806.98 347.119C819.092 356.901 830.466 367.639 842.851 377.183V377.183Z" fill="#6BA8B2"/>
<path d="M503.711 204.034C510.866 208.022 520.111 209.763 527.835 212.665L589.069 234.731C594.7 236.738 602.387 235.844 608.047 234.553C610.258 234.013 613.837 233.094 613.662 230.178C613.556 227.404 610.516 225.062 608.62 223.331C603.493 218.574 598.197 214.851 592.463 210.881C575.951 199.592 555.881 192.919 535.916 191.35C529.88 190.915 521.354 189.638 515.555 191.808C510.869 193.58 506.704 200.15 503.711 204.034V204.034Z" fill="#6BA8B2"/>
<path d="M549.012 238.044C551.749 239.615 554.243 241.268 556.72 243.177C565.615 250.031 566.215 257.402 553.657 259.028C540.6 260.72 526.04 256.677 513.294 259.594C531.047 265.2 557.688 262.763 574.843 256.335C580.4 254.247 590.915 250.149 592.593 243.547C593.793 238.73 586.574 238.55 583.632 238.526C572.86 238.3 559.447 235.679 549.012 238.044V238.044Z" fill="#6BA8B2"/>
<path d="M488.978 220.94C498.5 224.42 509.834 225.08 519.768 227.441C527.137 229.173 534.604 233.222 542.069 234.13C554.841 235.718 567.863 234.539 580.653 235.872C577.524 231.666 566.922 230.404 562.04 228.706C548.087 223.875 534.338 218.663 520.59 213.451C515.526 211.523 506.742 207.087 501.316 207.84C496.433 208.473 491.711 217.394 488.978 220.94V220.94Z" fill="#6BA8B2"/>
<path d="M467.769 252.773C474.981 255.639 484.22 254.594 491.906 254.865C506.781 255.472 521.625 256.235 536.492 256.387C544.508 256.464 554.092 257.3 561.279 253.329C551.29 233.341 522.369 236.175 504.095 233.576C499.299 232.93 487.079 228.179 482.87 230.498C476.155 234.205 471.829 246.572 467.769 252.773V252.773Z" fill="#6BA8B2"/>
<path d="M484.554 226.682C494.751 230.682 513.505 234.637 524.253 232.333C515.417 228.664 505.395 227.58 496.037 225.752C492.039 225.003 487.612 223.296 484.554 226.682V226.682Z" fill="#6BA8B2"/>
<path d="M656.32 348.188C639.274 370.31 625.902 397.326 615.629 423.232C611.235 434.29 605.44 447.05 604.971 459.069L605.478 459.459C609.82 458.948 620.11 460.148 622.903 456.29C627.636 449.799 628.847 436.468 631.392 428.74C637.847 408.954 648.088 391.007 653.438 370.907C655.142 364.505 658.937 354.69 656.32 348.188V348.188Z" fill="#6BA8B2"/>
<path d="M629.511 456.448C642.826 456.75 641.33 442.858 644.076 432.773C649.895 411.599 657.597 382.276 674.776 367.434C666.815 364.26 657.9 377.575 654.498 383.387C648.128 394.448 645.124 406.846 641.215 418.905C637.188 431.233 632.32 443.72 629.511 456.448Z" fill="#6BA8B2"/>
<path d="M675.645 370.616C669.302 375.237 665.368 384.766 661.953 391.644C652.014 411.527 647.495 432.178 641.789 453.439C653.43 455.681 656.986 446.758 660.273 437.719C665.802 422.511 671.092 407.03 674.242 391.066C675.478 384.572 677.563 377.208 675.645 370.616V370.616Z" fill="#6BA8B2"/>
<path d="M679.304 373.435C675.778 398.619 670.668 427.606 657.755 449.952C667.056 451.737 680.905 445.991 689.742 443.022C692.269 442.188 697.781 441.322 699.01 438.68C700.75 434.908 697.208 426.347 696.449 422.443C693.458 407.578 689.872 384.987 679.304 373.435V373.435Z" fill="#6BA8B2"/>
<path d="M639.498 414.263C634.36 423.492 631.682 434.885 628.636 445.008C627.581 448.591 625.098 453.675 626.286 457.372C630.341 448.385 632.55 438.066 635.487 428.666C636.869 424.079 639.451 418.981 639.498 414.263V414.263Z" fill="#6BA8B2"/>
<path d="M535.384 383.107C519.247 394.267 509.545 411.282 497.833 426.48C502.718 430.155 505.468 426.353 509.492 422.994C514.652 418.627 521.017 413.394 528.028 413.145C531.376 403.793 535.189 393.722 536.44 383.831L535.427 383.05L535.384 383.107V383.107Z" fill="#6BA8B2"/>
<path d="M548.358 403.063C543.824 405.221 535.174 412.371 533.644 417.383C532.767 420.385 533.838 424.351 533.584 427.474C533.089 433.822 531.503 439.956 529.436 445.899C534.508 448.282 535.731 440.523 537.299 436.975C541.271 427.746 550.442 413.282 548.358 403.063V403.063Z" fill="#6BA8B2"/>
<path d="M526.089 415.777C518.308 419.471 509.993 424.905 504.138 431.339L516.519 440.072C519.394 432.15 523.547 424.315 527.115 416.658L526.045 415.834L526.089 415.777Z" fill="#6BA8B2"/>
<path d="M530.183 422.341C525.628 428.251 522.841 434.896 519.499 441.561C521.587 442.811 523.761 443.948 526.065 444.916C529.354 439.018 531.945 428.903 530.183 422.341V422.341Z" fill="#6BA8B2"/>
<path d="M295.283 300.409C246.61 267.257 179.221 276.229 124.138 276.421C111.87 276.495 105.679 268.483 94.5289 266.754C82.0628 264.836 78.4679 272.173 69.6714 278.32C64.0562 282.201 57.8043 284.028 53.9778 290.334C42.161 309.443 55.8361 336.186 63.465 354.387C84.6397 404.822 105.834 455.603 152.101 487.757C218.38 533.854 292.126 456.205 315.029 397.052C328.949 361.028 329.932 323.983 295.283 300.409Z" fill="#175361"/>
<path d="M353.306 415.463C344.038 395.96 313.911 401.988 299.144 388.449C285.302 375.902 286.05 351.839 271.664 340.454C264.11 334.521 254.951 335.726 246.086 334.392C234.936 332.662 223.429 327.645 215.401 319.475C203.864 307.671 205.278 286.181 192.059 276.994C176.303 266.034 152.43 279.634 137.571 269.146C132.948 265.835 134.788 258.247 135.395 253.514C137.331 241.395 149.566 218.868 133.484 211.407C123.833 206.896 109.256 210.84 99.3892 213.391C77.8473 218.855 56.6525 224.298 34.5075 226.749C27.2384 227.502 19.3183 227.507 12.4013 229.894C10.2659 230.622 5.34939 232.984 7.00331 236.113C9.7132 241.01 31.053 238.169 36.0856 237.889C55.1745 236.827 73.8437 232.916 92.2909 228.147C101.647 225.799 115.452 220.505 125.079 223.016C130.637 224.36 126.353 233.389 125.24 236.845C121.304 248.988 114.727 266.849 124.49 278.055C139.827 295.567 165.811 279.238 182.617 290.314C187.221 293.278 188.042 301.762 189.619 306.635C192.46 315.442 197.19 323.796 203.651 330.399C212.797 339.899 225.278 346.777 238.057 349.635C244.932 351.167 255.826 349.865 261.64 354.241C265.092 356.834 266.38 362.768 268.072 366.591C272.065 375.768 276.497 385.009 282.176 393.222C293.261 409.404 311.025 411.114 328.794 414.477C336.618 415.869 345.652 418.674 353.306 415.463Z" fill="#FEECE9"/>
<path d="M332.307 469.724C325.056 464.557 316.254 462.784 308.921 457.708C302.311 453.115 297.577 446.241 291.541 441.007C280.568 431.521 268.038 423.776 256.911 414.647C249.978 408.94 247.832 400.094 239.785 394.711C224.773 384.579 203.895 383.217 190.266 371.355C178.835 361.459 182.601 341.579 169.483 332.648C158.626 325.245 140.377 328.871 127.998 328.516C123.028 328.357 115.209 328.618 111.516 324.82C107.273 320.53 108.814 310.696 108.77 305.215C108.869 292.937 108.978 280.833 100.179 271.314C86.8531 257.085 60.4619 262.992 44.4009 268.411C40.5592 269.757 27.4142 272.838 27.8152 278.473C28.3078 284.19 37.7169 281.23 40.8018 280.362C55.2964 276.509 71.3142 271.875 86.109 276.535C96.03 279.639 96.2773 288.764 96.0762 297.653C95.8711 311.155 92.9428 327.333 104.976 337.108C120.838 349.977 148.264 332.958 162.698 345.211C171.463 352.557 170.222 370.903 179.257 379.975C193.176 393.909 213.952 395.016 230.344 404.897C238.178 409.596 239.958 418.114 246.052 424.39C256.847 435.365 271.068 443.8 283.164 453.136C290.801 458.978 297.035 466.203 306.199 469.784C314.404 473.331 324.272 473.913 332.307 469.724V469.724Z" fill="#FEECE9"/>
</svg>
