<svg width="1068" height="838" viewBox="0 0 1068 838" fill="none" xmlns="http://www.w3.org/2000/svg">
<path d="M545.131 174.636C476.982 139.73 405.319 158.728 354.552 186.656C300.925 216.277 254.703 257.407 224.116 308.311C213.585 325.634 208.659 345.781 199.815 363.974C183.623 397.672 163.65 426.998 155.423 465.061C140.507 534.934 167.048 635.553 254.24 680.019C307.974 707.301 363.897 704.168 409.183 686.633C486.67 656.773 545.214 587.576 565.588 510.53C570.732 490.721 576.172 469.868 576.279 448.367C576.398 432.269 570.904 412.082 574.978 397.247C591.531 337.558 643.042 268.452 575.068 198.247C566.643 189.411 556.34 180.286 545.131 174.636V174.636Z" fill="#FEECE9"/>
<path fill-rule="evenodd" clip-rule="evenodd" d="M203.6 319.976L201.156 318.195C238.214 267.332 310.525 248.626 376.275 270.816C417.465 284.822 462.338 341.613 429.507 377.754C415.981 392.535 396.833 398.545 377.686 404.555C370.061 406.912 362.651 409.245 355.455 412.095C363.301 417.812 369.992 424.305 375.355 432.348C379.346 438.493 382.866 445.013 384.629 452.053C397.961 503.485 331.728 514.931 292.785 521.623C290.257 522.119 287.815 522.498 285.588 522.853L289.318 525.571C294.549 529.202 299.823 533.045 303.898 537.992C322.216 560.689 303.98 579.771 285.095 590.827C253.105 609.599 214.809 621.618 178.142 633.026C171.245 635.194 164.135 637.386 157.452 639.531C153.854 640.685 149.4 642.475 144.645 644.406C129.269 650.645 109.437 658.675 97.1784 653.879C106.211 645.535 120.947 640.986 134.141 636.932C138.467 635.588 142.494 634.386 146.263 632.996C156.157 629.416 166.095 626.047 175.904 622.584C202.29 613.396 228.805 604.302 254.418 593.472C255.617 592.907 257.03 592.319 258.572 591.824C274.677 585.395 302.475 573.999 300.615 555.741C299.189 542.833 281.822 528.021 269.308 525.197C261.979 523.634 253.796 524.326 245.955 525.087C241.885 525.538 237.9 525.872 234.173 525.853C210.906 526.165 187.382 525.209 164.112 521.742C162.526 521.485 160.726 521.253 158.926 521.021C148.213 519.509 136.385 517.904 126.74 513.035C121.981 510.647 115.807 506.148 118.287 500.582C123.845 487.548 153.927 490.584 170.383 492.324C172.611 492.509 174.625 492.717 176.211 492.973C197.594 494.706 218.849 497.965 239.979 503.289C244.136 504.34 248.294 505.931 252.58 507.615C258.281 509.791 264.025 512.178 269.639 512.851C289.651 515.384 315.011 508.145 333.216 502.348C357.889 494.43 383.67 479.586 372.543 449.181C368.677 438.812 357.433 419.65 345.689 415.769C337.459 413.01 325.764 415.818 315.312 418.272C310.3 419.476 305.716 420.632 301.731 420.965C269.256 424.458 236.564 426.354 203.397 423.228C186.856 421.606 168.772 419.4 153.467 411.486C146.866 408.114 139.448 402.89 140.126 394.932C142.289 371.153 191.003 366.724 209.127 365.363C239.547 363.071 272.631 369.013 301.951 380.665C306.837 382.606 312.453 385.979 318.541 389.515C329.731 396.05 341.821 403.24 351.076 402.97C378.626 402.183 431.139 381.461 431.624 350.525C432.231 312.124 395.395 281.87 359.695 273.842C302.738 261.475 236.037 275.456 203.6 319.976ZM193.669 376.039C240.367 369.782 291.282 381.523 333.084 407.664C291.791 421.096 237.202 421.424 192.72 414.909C192.163 414.863 191.263 414.747 190.448 414.513C179.306 413.049 149.866 408.862 148.826 397.315C147.656 382.975 183.772 377.46 193.669 376.039V376.039ZM163.547 513.058C152.19 511.617 139.677 509.873 129.345 504.323C160.273 495.388 211.999 503.044 243.375 515.654C221.056 520.612 193.244 516.892 169.503 513.801C168.046 513.639 166.46 513.383 165.004 513.22C164.446 513.174 164.104 513.104 163.547 513.058V513.058Z" fill="#ED7A51"/>
<g clip-path="url(#clip0_140_14)">
<path fill-rule="evenodd" clip-rule="evenodd" d="M856.403 89.5104C864.969 88.2215 873.499 86.7764 882.051 86.1483C881.974 87.9744 881.897 89.8005 881.855 91.7829C881.066 103.471 880.236 117.142 896.715 116.028C908.962 115.053 920.528 100.258 927.991 90.5061C928.508 89.8953 929.026 89.2845 929.387 88.7091C930.301 87.6793 931.024 86.5285 931.711 85.2214C933.88 81.7692 936.36 78.2461 940.153 76.8909C954.149 72.0662 971.406 80.1469 982.416 88.1676C1010.2 108.653 1025.03 143.592 1029.96 176.834C1032.35 192.404 1032.4 208.505 1029.83 223.887C1016.07 307.74 950.852 352.813 886.809 397.29C876.452 404.412 866.251 411.498 856.12 418.897C851.902 421.993 847.841 425.053 843.623 428.149C824.539 442.351 806.009 456.098 782.888 464.804L782.143 465.138C772.324 468.849 759.335 473.774 749.008 470.202C737.795 466.338 736.882 454.378 736.168 444.018C736.004 442.576 735.996 441.098 735.868 439.811C733.481 414.87 729.228 388.214 721.814 364.251C713.306 336.918 698.17 312.901 683.033 288.883C671.274 270.346 659.672 251.773 650.976 231.553C638.432 202.343 634.695 171.46 639.581 140.262C642.805 119.799 649.136 99.2888 664.12 84.3747C692.742 55.839 730.466 68.8046 765.687 80.8594C779.404 85.6342 792.738 90.1672 805 92.1488C822.332 94.7867 839.307 92.2445 856.403 89.5104V89.5104ZM995.007 137.08C984.821 130.517 952.5 148.549 971.162 159.927C984.115 167.835 1013.05 148.601 995.007 137.08ZM938.874 204.093C930.667 197.573 914.8 206.44 908.691 212.761C893.536 228.371 879.315 253.141 872.673 273.723C870.011 282.219 868.598 294.05 876.302 300.52C887.475 309.983 900.058 300.382 908.45 292.556C925.668 276.641 935.961 254.079 941.901 231.849C944.095 223.458 947.118 210.769 938.874 204.093V204.093ZM745.651 158.725C750.542 154.983 756.298 150.715 762.37 153.61C773.435 158.988 766.696 171.206 762.466 178.579C754.92 192.297 739.551 203.352 726.55 212.554C725.288 213.499 724.026 214.443 722.885 215.196C722.176 215.686 721.467 216.176 720.794 216.822C715.902 220.564 710.458 224.761 704.351 221.709C693.634 216.417 699.57 203.559 703.836 196.342C711.609 182.902 725.319 173.21 738.044 164.235C740.015 162.801 742.021 161.523 743.836 160.124C744.389 159.669 744.942 159.215 745.651 158.725V158.725ZM803.036 211.286C796.908 207.417 790.273 212.871 786.601 217.651C778.813 228.135 770.24 244.552 767.062 257.276C765.752 262.342 767.499 267.864 772.095 270.765C778.26 274.79 785.171 269.109 788.459 264.087C795.418 254.285 817.975 220.715 803.036 211.286V211.286ZM783.763 337.99C800.823 335.1 827.361 339.263 840.06 351.832C850.631 362.254 841.985 374.741 829.377 376.291C814.047 378.131 779.183 371.256 768.016 359.654C755.593 346.858 773.013 339.775 783.763 337.99Z" fill="#ED7A51"/>
</g>
<defs>
<clipPath id="clip0_140_14">
<rect width="408" height="385" fill="white" transform="translate(990.509 0.914551) rotate(77.1973)"/>
</clipPath>
</defs>
</svg>
