<svg width="477" height="67" viewBox="0 0 477 67" fill="none" xmlns="http://www.w3.org/2000/svg">
<path fill-rule="evenodd" clip-rule="evenodd" d="M29.118 39.4503C56.9722 28.1087 86.5394 19.1639 126.903 28.8097C131.421 9.90376 152.122 -2.59506 186.842 1.1749C195.02 2.02508 203.919 3.04752 212.052 4.88084C213.674 5.26839 215.656 5.74207 217.613 6.3202C222.093 7.5012 226.909 8.87277 230.712 8.89838C233.565 8.91758 235.561 7.73835 237.377 6.51605C238.478 5.89574 239.398 5.23236 240.654 4.75956C246.933 2.39556 255.275 0.966118 263.393 0.476745C299.715 -1.66404 335.113 7.23692 371.617 16.2918C375.041 17.11 378.62 18.0756 382.043 18.8938C407.04 25.0883 432.935 34.6995 455.212 45.1023C467.201 50.7279 477.84 58.0184 476.154 66.6697C469.692 65.015 466.612 61.9602 463.558 58.8011C461.565 56.7789 459.572 54.7568 456.578 52.9371C443.261 44.8963 420.654 35.0771 403.926 31.7421C385.938 28.1058 357.389 24.8167 344.276 31.0685C333.774 35.9568 352.092 46.1865 362.321 46.4228L362.596 45.2738L362.416 45.2307C358.962 43.7428 345.276 38.043 351.275 36.0537C354.377 35.0284 358.863 36.9836 362.161 38.324C362.522 38.4102 362.677 38.5577 363.037 38.6438C371.207 41.9211 387.041 49.7906 374.502 53.6399C354.167 59.8221 322.307 42.4916 331.077 28.9081C335.067 22.574 344.371 22.6994 353.494 22.7818C358.994 22.8816 364.7 22.92 369.393 21.6125C339.481 14.4642 310.711 8.91394 281.129 8.35904C270.694 8.18415 252.583 9.04564 247.997 14.6852C265.015 19.1939 285.229 28.6622 295.58 38.7545C300.988 44.022 303.69 51.8449 296.751 55.3762C280.696 63.575 246.067 43.4848 236.462 33.4602C235.09 32.0281 233.892 29.8649 232.875 27.7447C231.312 24.7211 229.594 21.55 226.935 19.9209C223.916 18.2057 217.46 17.3253 213.191 16.8571C212.625 16.8324 212.084 16.7032 211.519 16.6785C197.68 14.8067 184.592 13.777 172.402 16.164C168.014 16.9923 163.705 18.2816 160.273 19.8905C155.125 22.304 146.026 29.2942 153.31 34.6789C156.385 36.9594 161.33 38.5829 166.071 40.2679C169.6 41.4425 172.923 42.6784 175.657 43.9942C185.509 48.9986 191.144 57.3016 182.463 61.7418C170.761 67.6683 158.911 59.8675 147.706 52.5523C140.787 48.0279 134.203 43.6941 128.132 42.7953C98.8073 38.7688 68.0654 41.4702 44.0818 47.7743C37.1815 49.5482 30.5666 51.7217 23.9767 53.7906C20.8994 54.7115 17.8221 55.6324 14.9249 56.5963C13.8992 56.9033 12.8484 57.3147 11.8227 57.6216C8.28512 58.8742 4.36223 60.1451 0.0181072 59.9903C2.46982 50.5281 15.9491 45.1368 27.5571 40.4024C27.8621 39.9232 28.4776 39.739 29.118 39.4503ZM246.177 26.2859C251.252 35.3384 268.392 42.5262 281.657 46.8003C279.67 38.3754 257.665 30.025 246.177 26.2859Z" fill="#6BA8B2"/>
</svg>
