<svg width="120" height="87" viewBox="0 0 120 87" fill="none" xmlns="http://www.w3.org/2000/svg">
<g clip-path="url(#clip0_110_810)">
<path d="M54.799 11.5996C57.0806 17.0003 62.4242 19.8207 68.1881 18.6806C70.1094 18.3205 72.3308 16.5803 74.2521 17.0003C76.7138 17.5404 78.3349 20.1808 80.9767 20.7808C88.4217 22.5811 99.169 18.8606 101.03 10.9995C95.8667 11.8996 90.343 15.2001 84.8793 13.9999C81.1568 13.1598 79.956 8.65917 75.9933 8.29912C71.9706 7.93907 68.6083 12.2597 64.8258 11.4195C60.6229 10.4594 59.4822 4.69862 54.799 4.5186C50.5962 4.33857 48.4948 9.97935 44.8323 9.91934C41.0497 9.85933 40.3893 -2.62239 35.466 0.498042C31.5033 2.95838 39.1885 15.1401 41.9503 16.5803C46.7536 18.9206 51.1365 13.6999 54.799 11.5996V11.5996Z" fill="#6BA8B2"/>
<path d="M119.463 41.2437C112.978 42.7439 104.513 48.8047 97.728 47.6646C88.6619 46.1644 83.0781 36.383 73.2315 36.203C66.9272 36.083 63.685 45.0842 58.1613 44.5441C51.5568 43.8841 47.1138 36.6831 40.3292 36.203C33.1844 35.7229 28.8615 45.6843 22.4972 44.7842C14.1516 43.584 10.4891 28.882 7.18685 22.7011C6.22621 20.9009 2.32357 15.9202 0.282191 19.5207C-1.0387 21.801 2.68381 25.6415 3.52438 27.7418C6.82661 36.023 10.6092 48.0846 20.2757 50.845C28.6814 53.2453 32.8242 42.6839 39.7889 43.584C46.8136 44.5441 51.4367 52.3452 59.302 52.2252C65.4262 52.1652 69.5089 43.0439 74.9126 44.2441C80.9166 45.5643 85.1195 50.785 90.5231 53.3654C99.6493 57.866 118.442 52.8253 119.463 41.2437V41.2437Z" fill="#6BA8B2"/>
<path d="M85.4797 77.5487C84.8793 76.0485 84.2189 74.8484 83.1382 73.6482C78.0347 67.9474 72.9313 71.1279 68.1881 75.3884C66.7471 76.7086 64.8258 79.349 62.6043 79.109C57.2006 78.5089 55.9398 70.3478 49.2152 72.208C44.6522 73.4682 42.5507 80.6692 37.5073 80.6692C31.6234 80.6692 28.9215 70.7078 25.9796 66.9873C24.8388 65.4871 22.137 63.8669 21.1163 66.5072C20.2157 68.8476 22.6773 72.268 23.7581 74.2483C27.1804 80.7292 31.9236 88.1702 40.2692 86.31C43.9917 85.4698 47.5341 79.8291 50.8363 79.8291C52.5175 79.8291 53.7183 82.0494 54.799 83.0695C57.1406 85.2298 60.3828 87.2701 63.685 86.97C68.9085 86.49 71.4903 80.2491 75.9333 79.589C77.9747 79.289 79.2956 82.4094 80.4964 83.6096C82.5378 85.5899 85.4197 86.37 88.1816 85.7699C92.9848 84.6897 97.7881 79.289 100.49 75.3884C101.571 73.8282 103.312 70.1677 100.37 69.4476C95.0262 67.9474 89.9828 75.8085 85.4797 77.5487V77.5487Z" fill="#6BA8B2"/>
</g>
<defs>
<clipPath id="clip0_110_810">
<rect width="119.463" height="87" fill="white"/>
</clipPath>
</defs>
</svg>
